<svg id="Layer_1" data-name="Layer 1" xmlns="http://www.w3.org/2000/svg" viewBox="0 0 30 30"><defs><style>.cls-1{fill:#181616;fill-rule:evenodd;}</style></defs><title>github</title><path class="cls-1" d="M15,0A15.2,15.2,0,0,0,0,15.38,15.34,15.34,0,0,0,10.26,30c.75.14,1-.33,1-.74s0-1.33,0-2.61c-4.17.93-5-2.07-5-2.07a4,4,0,0,0-1.67-2.24c-1.36-1,.11-.94.11-.94A3.16,3.16,0,0,1,6.94,23a3.15,3.15,0,0,0,4.37,1.27,3.31,3.31,0,0,1,.95-2.05c-3.33-.39-6.83-1.71-6.83-7.6A6,6,0,0,1,7,10.45a5.67,5.67,0,0,1,.15-4.07S8.38,6,11.25,8a13.82,13.82,0,0,1,7.51,0c2.86-2,4.12-1.58,4.12-1.58A5.67,5.67,0,0,1,23,10.45a6,6,0,0,1,1.54,4.13c0,5.9-3.51,7.2-6.85,7.58a3.74,3.74,0,0,1,1,2.85c0,2.06,0,3.72,0,4.22s.27.89,1,.74A15.35,15.35,0,0,0,30,15.38,15.2,15.2,0,0,0,15,0Z" transform="translate(0 0)"/></svg>